<svg xmlns="http://www.w3.org/2000/svg" xmlns:xlink="http://www.w3.org/1999/xlink" version="1.1" width="256" height="256" viewBox="0 0 256 256" xml:space="preserve">
<desc>Created with Fabric.js 1.7.22</desc>
<defs>
</defs>
<g transform="translate(128 128) scale(0.72 0.72)" style="">
	<g style="stroke: none; stroke-width: 0; stroke-dasharray: none; stroke-linecap: butt; stroke-linejoin: miter; stroke-miterlimit: 10; fill: none; fill-rule: nonzero; opacity: 1;" transform="translate(-175.05 -175.05000000000004) scale(3.89 3.89)" >
	<path d="M 69.666 23.625 l -9.411 7.729 v -7.729 c -2.617 0 -4.739 -2.122 -4.739 -4.739 V 4.739 C 55.516 2.122 57.638 0 60.255 0 h 21.757 c 2.617 0 4.739 2.122 4.739 4.739 v 14.147 c 0 2.617 -2.122 4.739 -4.739 4.739 H 69.666 L 69.666 23.625 z" style="stroke: none; stroke-width: 1; stroke-dasharray: none; stroke-linecap: butt; stroke-linejoin: miter; stroke-miterlimit: 10; fill: rgb(239,83,80); fill-rule: nonzero; opacity: 1;" transform=" matrix(1 0 0 1 0 0) " stroke-linecap="round" />
	<path d="M 75.799 16.41 h -2.921 c -0.553 0 -1 -0.448 -1 -1 v -3.21 c 0 -0.552 0.447 -1 1 -1 h 1.921 V 9.722 h -1.921 c -0.553 0 -1 -0.448 -1 -1 s 0.447 -1 1 -1 h 2.921 c 0.553 0 1 0.448 1 1 v 3.477 c 0 0.552 -0.447 1 -1 1 h -1.921 v 1.21 h 1.921 c 0.553 0 1 0.448 1 1 S 76.352 16.41 75.799 16.41 z" style="stroke: none; stroke-width: 1; stroke-dasharray: none; stroke-linecap: butt; stroke-linejoin: miter; stroke-miterlimit: 10; fill: rgb(255,255,255); fill-rule: nonzero; opacity: 1;" transform=" matrix(1 0 0 1 0 0) " stroke-linecap="round" />
	<path d="M 82.382 16.41 c -0.553 0 -1 -0.448 -1 -1 v -0.375 h -2.313 c -0.318 0 -0.617 -0.151 -0.806 -0.408 s -0.244 -0.587 -0.148 -0.891 l 1.757 -5.625 c 0.163 -0.527 0.725 -0.821 1.252 -0.656 s 0.821 0.726 0.656 1.253 l -1.351 4.327 h 0.952 v -0.563 c 0 -0.552 0.447 -1 1 -1 s 1 0.448 1 1 v 2.938 C 83.382 15.962 82.935 16.41 82.382 16.41 z" style="stroke: none; stroke-width: 1; stroke-dasharray: none; stroke-linecap: butt; stroke-linejoin: miter; stroke-miterlimit: 10; fill: rgb(255,255,255); fill-rule: nonzero; opacity: 1;" transform=" matrix(1 0 0 1 0 0) " stroke-linecap="round" />
	<path d="M 63.624 11.101 l 0.761 -2.028 c 0.115 -0.307 0.072 -0.651 -0.114 -0.921 c -0.188 -0.27 -0.494 -0.431 -0.822 -0.431 h -3.563 c -0.553 0 -1 0.448 -1 1 s 0.447 1 1 1 h 2.119 L 61.5 11.066 h -0.563 c -0.553 0 -1 0.448 -1 1 c 0 0.49 0.359 0.879 0.825 0.965 l -0.761 2.028 c -0.193 0.517 0.068 1.094 0.585 1.288 c 0.116 0.043 0.234 0.064 0.352 0.064 c 0.404 0 0.785 -0.248 0.937 -0.649 l 1.012 -2.695 h 0.562 c 0.553 0 1 -0.448 1 -1 C 64.448 11.576 64.089 11.187 63.624 11.101 z" style="stroke: none; stroke-width: 1; stroke-dasharray: none; stroke-linecap: butt; stroke-linejoin: miter; stroke-miterlimit: 10; fill: rgb(255,255,255); fill-rule: nonzero; opacity: 1;" transform=" matrix(1 0 0 1 0 0) " stroke-linecap="round" />
	<path d="M 66.333 16.677 c -0.123 0 -0.247 -0.023 -0.368 -0.07 c -0.513 -0.203 -0.765 -0.784 -0.562 -1.298 l 2.75 -6.955 c 0.203 -0.514 0.784 -0.762 1.298 -0.563 c 0.513 0.203 0.765 0.784 0.562 1.298 l -2.75 6.955 C 67.107 16.438 66.731 16.677 66.333 16.677 z" style="stroke: none; stroke-width: 1; stroke-dasharray: none; stroke-linecap: butt; stroke-linejoin: miter; stroke-miterlimit: 10; fill: rgb(255,255,255); fill-rule: nonzero; opacity: 1;" transform=" matrix(1 0 0 1 0 0) " stroke-linecap="round" />
	<path d="M 20.68 45.754 l -4.563 0 c -0.983 0 -1.781 -0.797 -1.781 -1.781 v -7.506 c 0 -0.983 0.797 -1.781 1.781 -1.781 h 3.277 C 21.319 38.107 21.866 41.774 20.68 45.754 z" style="stroke: none; stroke-width: 1; stroke-dasharray: none; stroke-linecap: butt; stroke-linejoin: miter; stroke-miterlimit: 10; fill: rgb(38,111,183); fill-rule: nonzero; opacity: 1;" transform=" matrix(1 0 0 1 0 0) " stroke-linecap="round" />
	<path d="M 47.459 45.754 l 4.565 0 c 0.983 0 1.781 -0.797 1.781 -1.781 v -7.506 c 0 -0.983 -0.797 -1.781 -1.781 -1.781 h -3.277 C 45.825 38.376 45.395 42.065 47.459 45.754 z" style="stroke: none; stroke-width: 1; stroke-dasharray: none; stroke-linecap: butt; stroke-linejoin: miter; stroke-miterlimit: 10; fill: rgb(38,111,183); fill-rule: nonzero; opacity: 1;" transform=" matrix(1 0 0 1 0 0) " stroke-linecap="round" />
	<path d="M 64.892 69.559 v 8.256 v 9.631 c 0 1.41 -1.241 2.554 -2.771 2.554 h -9.92 L 34.07 84.805 L 15.875 90 H 6.02 c -1.531 0 -2.771 -1.143 -2.771 -2.554 v -9.631 v -8.256 l 17.315 -10.157 c 2.462 -0.961 4.133 -3.202 4.133 -5.752 l 0.052 -2.155 h 18.646 l 0.049 2.155 c 0 2.55 1.671 4.792 4.133 5.752 L 64.892 69.559 z" style="stroke: none; stroke-width: 1; stroke-dasharray: none; stroke-linecap: butt; stroke-linejoin: miter; stroke-miterlimit: 10; fill: rgb(242,194,178); fill-rule: nonzero; opacity: 1;" transform=" matrix(1 0 0 1 0 0) " stroke-linecap="round" />
	<path d="M 64.828 77.815 h -7.579 c -2.786 0 -5.043 2.081 -5.04 4.648 c 0.005 3.298 0.007 7.198 -0.008 7.537 H 34.07 H 15.875 c -0.015 -0.339 -0.013 -4.239 -0.008 -7.537 c 0.004 -2.567 -2.254 -4.648 -5.04 -4.648 H 3.249 v -8.256 c 0 -4.106 3.184 -7.625 7.567 -8.363 l 8.32 -1.401 c 0.499 -0.084 0.976 -0.217 1.427 -0.393 l -0.002 -0.006 c 9.035 8.901 18.041 8.873 27.018 0 l -0.002 0.006 c 0.451 0.176 0.928 0.309 1.427 0.393 l 8.32 1.401 c 4.383 0.738 7.567 4.257 7.567 8.363 v 8.256 H 64.828 z" style="stroke: none; stroke-width: 1; stroke-dasharray: none; stroke-linecap: butt; stroke-linejoin: miter; stroke-miterlimit: 10; fill: rgb(38,111,183); fill-rule: nonzero; opacity: 1;" transform=" matrix(1 0 0 1 0 0) " stroke-linecap="round" />
	<path d="M 46.322 17.427 L 19.277 31.819 l 0.777 10.447 c 0.264 3.16 1.478 6.27 2.936 9.395 c 0.37 0.856 0.787 1.381 1.62 2.593 c 1.498 2.008 3.341 2.569 5.951 3.443 c 1.382 0.492 2.45 0.47 3.508 0.469 c 1.058 0 2.126 0.023 3.508 -0.469 c 2.61 -0.873 4.454 -1.434 5.951 -3.443 c 0.834 -1.212 1.25 -1.736 1.62 -2.593 c 1.458 -3.125 2.672 -6.235 2.936 -9.395 l 0.777 -10.447 L 46.322 17.427 z" style="stroke: none; stroke-width: 1; stroke-dasharray: none; stroke-linecap: butt; stroke-linejoin: miter; stroke-miterlimit: 10; fill: rgb(250,206,191); fill-rule: nonzero; opacity: 1;" transform=" matrix(1 0 0 1 0 0) " stroke-linecap="round" />
	<path d="M 43.142 53.095 h -5.469 c -0.473 0 -0.855 -0.382 -0.855 -0.855 c 0 -0.472 0.382 -0.855 0.855 -0.855 h 5.469 c 3.105 0 5.631 -2.526 5.631 -5.631 c 0 -0.472 0.382 -0.855 0.855 -0.855 c 0.473 0 0.855 0.383 0.855 0.855 C 50.482 49.802 47.189 53.095 43.142 53.095 z" style="stroke: none; stroke-width: 1; stroke-dasharray: none; stroke-linecap: butt; stroke-linejoin: miter; stroke-miterlimit: 10; fill: rgb(38,111,183); fill-rule: nonzero; opacity: 1;" transform=" matrix(1 0 0 1 0 0) " stroke-linecap="round" />
	<path d="M 24.286 37.292 c 0.814 -1.194 2.236 -1.799 3.667 -1.811 c 0.716 -0.001 1.429 0.16 2.065 0.461 c 0.633 0.31 1.2 0.737 1.602 1.349 c -0.73 0.025 -1.351 -0.03 -1.951 -0.051 c -0.595 -0.03 -1.156 -0.048 -1.716 -0.05 c -0.56 0 -1.121 0.018 -1.716 0.048 C 25.636 37.259 25.015 37.315 24.286 37.292 z" style="stroke: none; stroke-width: 1; stroke-dasharray: none; stroke-linecap: butt; stroke-linejoin: miter; stroke-miterlimit: 10; fill: rgb(220,102,65); fill-rule: nonzero; opacity: 1;" transform=" matrix(1 0 0 1 0 0) " stroke-linecap="round" />
	<path d="M 36.522 37.292 c 0.814 -1.194 2.236 -1.799 3.667 -1.811 c 0.716 -0.001 1.429 0.16 2.065 0.461 c 0.633 0.31 1.2 0.737 1.602 1.349 c -0.73 0.025 -1.351 -0.03 -1.951 -0.051 c -0.596 -0.03 -1.156 -0.048 -1.716 -0.05 c -0.56 0 -1.121 0.018 -1.716 0.048 C 37.873 37.259 37.252 37.315 36.522 37.292 z" style="stroke: none; stroke-width: 1; stroke-dasharray: none; stroke-linecap: butt; stroke-linejoin: miter; stroke-miterlimit: 10; fill: rgb(220,102,65); fill-rule: nonzero; opacity: 1;" transform=" matrix(1 0 0 1 0 0) " stroke-linecap="round" />
	<path d="M 28.965 47.18 c 0.946 0.415 1.788 0.849 2.634 1.144 c 0.84 0.304 1.657 0.476 2.468 0.48 c 0.811 -0.008 1.628 -0.183 2.469 -0.487 c 0.847 -0.296 1.69 -0.727 2.639 -1.137 c -0.453 0.926 -1.144 1.713 -2.012 2.326 c -0.866 0.605 -1.959 1.004 -3.094 1.007 c -1.134 -0.002 -2.229 -0.399 -3.096 -1.005 C 30.106 48.893 29.417 48.106 28.965 47.18 z" style="stroke: none; stroke-width: 1; stroke-dasharray: none; stroke-linecap: butt; stroke-linejoin: miter; stroke-miterlimit: 10; fill: rgb(220,102,65); fill-rule: nonzero; opacity: 1;" transform=" matrix(1 0 0 1 0 0) " stroke-linecap="round" />
	<path d="M 49.256 34.907 c 3.596 -16.052 -4.949 -21.843 -14.988 -21.843 h 0 c -8.723 0 -17.736 6.368 -17.35 18.898 c 12.512 1.125 24.62 -3.636 29.404 -14.535 C 41.537 26.415 45.087 31.702 49.256 34.907 z" style="stroke: none; stroke-width: 1; stroke-dasharray: none; stroke-linecap: butt; stroke-linejoin: miter; stroke-miterlimit: 10; fill: rgb(243,170,0); fill-rule: nonzero; opacity: 1;" transform=" matrix(1 0 0 1 0 0) " stroke-linecap="round" />
	<path d="M 19.76 39.175 c -1.046 -3.95 -1.425 -7.3 -0.509 -9.486 h 2.182 C 20.191 32.192 19.633 35.354 19.76 39.175 z" style="stroke: none; stroke-width: 1; stroke-dasharray: none; stroke-linecap: butt; stroke-linejoin: miter; stroke-miterlimit: 10; fill: rgb(243,170,0); fill-rule: nonzero; opacity: 1;" transform=" matrix(1 0 0 1 0 0) " stroke-linecap="round" />
	<path d="M 48.305 39.329 c 1.046 -3.95 1.605 -7.454 0.689 -9.64 h -2.182 C 48.054 32.192 48.432 35.508 48.305 39.329 z" style="stroke: none; stroke-width: 1; stroke-dasharray: none; stroke-linecap: butt; stroke-linejoin: miter; stroke-miterlimit: 10; fill: rgb(243,170,0); fill-rule: nonzero; opacity: 1;" transform=" matrix(1 0 0 1 0 0) " stroke-linecap="round" />
</g>
</g>
</svg>